<?xml version="1.0" standalone="no"?>
<!DOCTYPE svg PUBLIC "-//W3C//DTD SVG 20010904//EN"
 "http://www.w3.org/TR/2001/REC-SVG-20010904/DTD/svg10.dtd">
<svg version="1.0" xmlns="http://www.w3.org/2000/svg"
 width="254.000000pt" height="252.000000pt" viewBox="0 0 254.000000 252.000000"
 preserveAspectRatio="xMidYMid meet">

<g transform="translate(0.000000,252.000000) scale(0.100000,-0.100000)"
fill="#000000" stroke="none">
<path d="M5 1260 c0 -696 1 -980 2 -632 2 347 2 917 0 1265 -1 347 -2 63 -2
-633z"/>
<path d="M570 1265 l0 -715 403 0 c461 0 486 3 636 76 80 39 109 60 182 133
73 73 94 102 132 181 61 128 81 222 75 359 -9 190 -74 337 -208 471 -88 88
-157 131 -277 173 -86 31 -92 31 -310 35 l-223 4 0 -512 0 -512 198 4 c197 3
197 3 250 32 97 54 152 139 160 246 5 80 -8 133 -51 197 -28 43 -114 113 -138
113 -5 0 -9 -68 -9 -150 0 -168 -8 -198 -60 -225 -16 -8 -55 -15 -90 -15 l-60
0 0 312 0 311 103 -6 c161 -9 264 -53 365 -153 78 -78 128 -178 144 -293 31
-208 -83 -426 -271 -521 -104 -52 -164 -60 -473 -60 l-278 0 0 615 0 615 -100
0 -100 0 0 -715z"/>
</g>
</svg>
